<svg width="137" height="51" viewBox="0 0 137 51" fill="none" xmlns="http://www.w3.org/2000/svg"><rect width="137" height="51" rx="3" fill="#003648"/><mask id="mask0" mask-type="alpha" maskUnits="userSpaceOnUse" x="82" y="0" width="55" height="43"><rect x="82" width="55" height="43" fill="#003648"/></mask><g mask="url(#mask0)"><circle opacity="0.1" cx="113.519" cy="12.5193" r="27.6923" transform="rotate(-13.8588 113.519 12.5193)" fill="white"/><path fill-rule="evenodd" clip-rule="evenodd" d="M123.892 -1.86625C125.013 -2.14273 126.146 -1.4562 126.423 -0.332872L131 18.2191L133.053 17.7125L133.4 19.1208C133.62 20.0117 133.078 20.9117 132.189 21.131L100.497 28.9498C99.6082 29.1691 98.7095 28.6246 98.4897 27.7337L98.1423 26.3254L100.196 25.8187L95.6193 7.26673C95.3422 6.1434 96.0259 5.00863 97.1465 4.73216L123.892 -1.86625ZM124.375 0.198353L97.6789 6.78469L102.25 25.3117L112.517 22.779C112.648 23.3108 113.185 23.6357 113.715 23.5049L117.955 22.4589C118.485 22.328 118.809 21.7908 118.678 21.259L128.946 18.7257L124.375 0.198353ZM119.62 10.5599C121.889 10.9702 124.023 12.8885 125.186 15.6306C125.543 16.4742 125.099 17.4344 124.239 17.7005L124.151 17.7248L115.028 19.9757C114.111 20.202 113.216 19.5465 113.138 18.6029C112.892 15.6349 113.889 12.9437 115.707 11.5254C116.366 11.7079 117.079 11.7298 117.79 11.5546C118.5 11.3794 119.121 11.0283 119.62 10.5599ZM109.369 18.7442C109.936 18.6043 110.509 18.9517 110.65 19.5202C110.784 20.0639 110.473 20.6129 109.949 20.7821L109.877 20.8028L105.722 21.8279C105.155 21.9678 104.581 21.6203 104.441 21.0519C104.307 20.5081 104.618 19.9591 105.141 19.79L105.214 19.7693L109.369 18.7442ZM109.431 14.6836C109.998 14.5436 110.571 14.891 110.711 15.4595C110.846 16.0032 110.535 16.5523 110.011 16.7214L109.939 16.7421L104.805 18.0087C104.238 18.1486 103.664 17.8012 103.524 17.2327C103.39 16.689 103.701 16.14 104.224 15.9708L104.297 15.9501L109.431 14.6836ZM106.436 11.3756L106.462 11.3703L106.488 11.3656L110.544 10.3649C111.111 10.225 111.685 10.5724 111.825 11.1409C111.959 11.6846 111.648 12.2336 111.125 12.4028L111.052 12.4235L105.918 13.6901L105.892 13.6955L105.866 13.7001L103.864 14.1941C103.297 14.3341 102.723 13.9867 102.583 13.4182C102.449 12.8745 102.76 12.3254 103.283 12.1563L103.356 12.1356L106.436 11.3756ZM116.02 4.38355C117.722 3.96383 119.442 5.00605 119.863 6.71143C120.283 8.4168 119.245 10.1395 117.544 10.5592C115.843 10.9789 114.123 9.93672 113.702 8.23135C113.281 6.52598 114.319 4.80326 116.02 4.38355ZM102.928 8.19608L109.601 6.5499C110.168 6.40999 110.741 6.75744 110.882 7.32586C111.016 7.86962 110.705 8.41863 110.182 8.58779L110.109 8.60846L103.984 10.1195L103.95 10.1297L102.923 10.383C102.356 10.5229 101.783 10.1755 101.643 9.60706C101.509 9.06335 101.819 8.51429 102.343 8.34514L102.416 8.32447L102.894 8.20634L102.928 8.19608Z" fill="#33778E"/></g><path fill-rule="evenodd" clip-rule="evenodd" d="M17.3543 32.1893C18.5058 32.1893 19.4741 32.432 20.259 32.9175C21.0436 33.4033 21.6322 34.0368 22.0247 34.8189L19.063 35.7082C18.6705 35.0775 18.0948 34.7618 17.3351 34.7618C16.7022 34.7618 16.1739 34.9956 15.7496 35.462C15.3254 35.9289 15.1138 36.5531 15.1138 37.335C15.1138 37.726 15.1707 38.082 15.2844 38.4038C15.3983 38.7254 15.5567 38.9997 15.7594 39.2271C15.9617 39.4539 16.199 39.6306 16.4711 39.7566C16.7434 39.8829 17.0315 39.946 17.3351 39.946C17.715 39.946 18.0627 39.8545 18.3792 39.6717C18.6953 39.4889 18.9301 39.2525 19.0822 38.962L22.0436 39.8704C21.6765 40.6395 21.0913 41.2701 20.2874 41.762C19.4839 42.2541 18.5058 42.5 17.3543 42.5C16.5185 42.5 15.7691 42.358 15.1038 42.0743C14.4397 41.7904 13.8759 41.412 13.4146 40.939C12.9522 40.466 12.6006 39.9176 12.3605 39.2931C12.1198 38.6689 12 38.0162 12 37.335C12 36.6539 12.1198 36.0013 12.3605 35.3771C12.6006 34.7526 12.9488 34.2039 13.4049 33.7312C13.8608 33.2579 14.4206 32.883 15.0849 32.6052C15.7496 32.328 16.5057 32.1893 17.3543 32.1893ZM28.0625 32.1892C28.9104 32.1892 29.6637 32.3309 30.3218 32.6147C30.9803 32.8986 31.5374 33.2769 31.9928 33.75C32.4484 34.2227 32.7967 34.7716 33.0374 35.3958C33.2775 36.0201 33.3979 36.673 33.3979 37.3537C33.3979 38.035 33.2807 38.6877 33.0464 39.3122C32.8127 39.9364 32.4678 40.485 32.0117 40.9581C31.5559 41.4311 30.996 41.8065 30.3318 42.0836C29.6672 42.3612 28.9104 42.5 28.0625 42.5C27.2145 42.5 26.4581 42.3612 25.7938 42.0836C25.1293 41.8065 24.5687 41.4311 24.1136 40.9581C23.6577 40.485 23.3124 39.9364 23.0784 39.3122C22.8443 38.6877 22.7274 38.035 22.7274 37.3537C22.7274 36.673 22.8443 36.0201 23.0784 35.3958C23.3124 34.7716 23.6577 34.2227 24.1136 33.75C24.5687 33.2769 25.1293 32.8986 25.7938 32.6147C26.4581 32.3309 27.2145 32.1892 28.0625 32.1892ZM44.942 28.5V38.9055C44.942 39.2079 44.9984 39.4193 45.1126 39.539C45.2263 39.6592 45.429 39.7316 45.72 39.7568V42.3108C45.4036 42.3737 45.1283 42.4148 44.8942 42.4337C44.6597 42.4527 44.4483 42.4621 44.258 42.4621C43.1949 42.4369 42.5875 42.0145 42.4355 41.1944L42.3783 40.6646C42.011 41.2828 41.5302 41.7431 40.9352 42.0457C40.3402 42.3485 39.7011 42.5 39.0179 42.5C38.334 42.5 37.7042 42.3704 37.1287 42.112C36.5523 41.8537 36.0557 41.4908 35.6379 41.0241C35.2205 40.5577 34.8946 40.012 34.6605 39.3878C34.426 38.7633 34.3091 38.0793 34.3091 37.3349C34.3091 36.6159 34.4162 35.9416 34.6318 35.3107C34.8472 34.6801 35.1507 34.1346 35.5432 33.6743C35.9354 33.2138 36.4005 32.8511 36.9389 32.5864C37.4763 32.3216 38.0685 32.1892 38.7139 32.1892C39.3979 32.1892 40.0238 32.3532 40.5936 32.6811C41.1631 33.0092 41.6003 33.4504 41.9035 34.0054V28.5H44.942ZM111.889 32.1892C112.737 32.1892 113.489 32.3309 114.148 32.6147C114.806 32.8986 115.363 33.2769 115.819 33.75C116.275 34.2227 116.623 34.7716 116.863 35.3958C117.104 36.0201 117.224 36.673 117.224 37.3537C117.224 38.035 117.106 38.6877 116.873 39.3122C116.639 39.9364 116.294 40.485 115.838 40.9581C115.382 41.4311 114.822 41.8065 114.158 42.0836C113.493 42.3612 112.737 42.5 111.889 42.5C111.041 42.5 110.284 42.3612 109.62 42.0836C108.955 41.8065 108.395 41.4311 107.94 40.9581C107.484 40.485 107.139 39.9364 106.904 39.3122C106.67 38.6877 106.554 38.035 106.554 37.3537C106.554 36.673 106.67 36.0201 106.904 35.3958C107.139 34.7716 107.484 34.2227 107.94 33.75C108.395 33.2769 108.955 32.8986 109.62 32.6147C110.284 32.3309 111.041 32.1892 111.889 32.1892ZM103.307 29.2187V32.3781H105.338V34.6676H103.307V38.8105C103.307 39.1389 103.392 39.3753 103.563 39.5201C103.734 39.6653 103.946 39.7377 104.199 39.7377C104.414 39.7377 104.642 39.6998 104.883 39.6244C105.123 39.5485 105.338 39.4666 105.528 39.3785L106.098 41.781C105.68 41.958 105.205 42.1214 104.674 42.2729C104.142 42.4243 103.597 42.5 103.041 42.5C102.662 42.5 102.303 42.4527 101.968 42.358C101.633 42.2635 101.338 42.112 101.085 41.9038C100.832 41.6958 100.633 41.4215 100.487 41.0812C100.342 40.7405 100.268 40.3306 100.268 39.8512V34.6676H98.9968V32.3781H100.268V29.2187H103.307ZM52.1758 32.1892C53.0233 32.1892 53.7765 32.328 54.4347 32.6052C55.0931 32.883 55.65 33.2578 56.1059 33.7311C56.5617 34.2039 56.9065 34.7496 57.1402 35.3675C57.3745 35.9856 57.492 36.635 57.492 37.3161C57.492 37.4928 57.485 37.666 57.4728 37.8363C57.4602 38.0066 57.4411 38.1549 57.4159 38.281H50.0487C50.0993 38.9495 50.3429 39.4573 50.7801 39.804C51.2165 40.151 51.7134 40.3243 52.2706 40.3243C52.7134 40.3243 53.1407 40.2174 53.552 40.0025C53.9632 39.7881 54.2385 39.4981 54.3779 39.1323L56.9599 39.8512C56.5677 40.6333 55.9599 41.2701 55.1375 41.7618C54.3143 42.254 53.3271 42.5 52.1758 42.5C51.3397 42.5 50.5902 42.3644 49.9255 42.0933C49.2609 41.8221 48.6976 41.4534 48.2361 40.9862C47.7733 40.52 47.4219 39.9807 47.1821 39.3687C46.9414 38.7572 46.8215 38.1173 46.8215 37.4485C46.8215 36.7295 46.9414 36.0517 47.1821 35.4149C47.4219 34.778 47.7705 34.2198 48.2262 33.7404C48.6822 33.2613 49.242 32.883 49.9066 32.6052C50.5711 32.328 51.3271 32.1892 52.1758 32.1892ZM81.3772 32.1892C82.2247 32.1892 82.9778 32.328 83.6361 32.6052C84.2945 32.883 84.8515 33.2578 85.3072 33.7311C85.7632 34.2039 86.1079 34.7496 86.3417 35.3675C86.5759 35.9856 86.6934 36.635 86.6934 37.3161C86.6934 37.4928 86.6865 37.666 86.6742 37.8363C86.6617 38.0066 86.6425 38.1549 86.6171 38.281H79.2502C79.3007 38.9495 79.5443 39.4573 79.9815 39.804C80.418 40.151 80.9148 40.3243 81.472 40.3243C81.9148 40.3243 82.3417 40.2174 82.7534 40.0025C83.1645 39.7881 83.4398 39.4981 83.5793 39.1323L86.1614 39.8512C85.7692 40.6333 85.1614 41.2701 84.3389 41.7618C83.5157 42.254 82.5284 42.5 81.3772 42.5C80.5412 42.5 79.7917 42.3644 79.1269 42.0933C78.4623 41.8221 77.899 41.4534 77.4372 40.9862C76.9748 40.52 76.6234 39.9807 76.3831 39.3687C76.1427 38.7572 76.0229 38.1173 76.0229 37.4485C76.0229 36.7295 76.1427 36.0517 76.3831 35.4149C76.6234 34.778 76.9719 34.2198 77.4277 33.7404C77.8835 33.2613 78.4434 32.883 79.108 32.6052C79.7725 32.328 80.5283 32.1892 81.3772 32.1892ZM94.6675 32.1891C95.3131 32.1891 95.8354 32.3058 96.234 32.5387C96.6328 32.7727 96.9394 33.0752 97.155 33.4471C97.3698 33.8193 97.5125 34.226 97.5818 34.6675C97.6516 35.1089 97.6864 35.5379 97.6864 35.9539V42.3106H94.6488V36.7296C94.6488 36.0738 94.5252 35.5979 94.2785 35.3013C94.0316 35.0049 93.7052 34.8566 93.3002 34.8566C93.0854 34.8566 92.8668 34.9009 92.6455 34.989C92.4237 35.0774 92.2147 35.2005 92.0191 35.3578C91.8228 35.5156 91.642 35.7016 91.478 35.916C91.3133 36.1309 91.1863 36.364 91.0981 36.6161V42.3106H88.0606V32.3782H90.7941V34.0432C91.1612 33.4506 91.6796 32.9932 92.3508 32.6714C93.0217 32.3498 93.7942 32.1891 94.6675 32.1891ZM71.6557 32.1891C72.2886 32.1891 72.798 32.3058 73.1846 32.5387C73.5698 32.7727 73.8707 33.0752 74.086 33.4471C74.3015 33.8193 74.4436 34.226 74.5131 34.6675C74.5827 35.1089 74.618 35.5379 74.618 35.9539V42.3106H71.5799V36.7296C71.5799 36.0738 71.4624 35.5979 71.2285 35.3013C70.9944 35.0049 70.6814 34.8566 70.2886 34.8566C69.8839 34.8566 69.488 35.0209 69.1019 35.3485C68.7159 35.6767 68.4344 36.099 68.2568 36.6161V42.3106H65.2193V36.7296C65.2193 36.0738 65.1021 35.5979 64.868 35.3013C64.6341 35.0049 64.3204 34.8566 63.9282 34.8566C63.5228 34.8566 63.1276 35.0174 62.7419 35.3392C62.355 35.6607 62.0735 36.0863 61.8968 36.6161V42.3106H58.8591V32.3782H61.5926V34.0432C61.9599 33.4378 62.4596 32.9773 63.093 32.6618C63.7259 32.3469 64.4601 32.1891 65.2951 32.1891C65.7004 32.1891 66.0606 32.2398 66.3774 32.3406C66.6935 32.4414 66.9629 32.5801 67.1847 32.7565C67.406 32.9335 67.5896 33.1383 67.7348 33.3715C67.8806 33.605 67.9848 33.8541 68.0484 34.1186C68.4151 33.501 68.9095 33.0248 69.5293 32.6902C70.1493 32.3562 70.8584 32.1891 71.6557 32.1891ZM125.008 32.2456V34.9702C124.274 34.9829 123.613 35.1026 123.024 35.3294C122.436 35.5565 122.002 35.8972 121.724 36.3513V42.3106H118.686V32.378H121.477V34.3836C121.831 33.7154 122.277 33.1948 122.815 32.8226C123.353 32.4509 123.926 32.2522 124.534 32.227C124.787 32.227 124.945 32.2334 125.008 32.2456ZM39.6822 34.7618C39.3529 34.7618 39.0525 34.8347 38.7802 34.9796C38.5081 35.1247 38.2708 35.3173 38.0685 35.5566C37.866 35.7964 37.7109 36.0739 37.6034 36.3891C37.4958 36.7046 37.4418 37.0388 37.4418 37.3917C37.4418 38.1361 37.663 38.7479 38.1065 39.227C38.5493 39.7064 39.125 39.9459 39.8343 39.9459C40.252 39.9459 40.6505 39.8231 41.0305 39.5767C41.4098 39.331 41.7073 38.9938 41.923 38.5645V36.4836C41.7329 35.9792 41.4259 35.5659 41.002 35.2444C40.5776 34.9228 40.1383 34.7618 39.6822 34.7618ZM111.889 34.7618C111.572 34.7618 111.278 34.8252 111.006 34.9512C110.734 35.0775 110.5 35.2539 110.303 35.4807C110.107 35.7081 109.952 35.9824 109.838 36.304C109.725 36.6255 109.667 36.9754 109.667 37.3537C109.667 38.1361 109.876 38.7633 110.294 39.2366C110.712 39.7093 111.243 39.9459 111.889 39.9459C112.205 39.9459 112.496 39.8831 112.762 39.7568C113.028 39.6308 113.259 39.4538 113.455 39.227C113.651 38.9999 113.806 38.7253 113.92 38.4038C114.034 38.0822 114.091 37.7323 114.091 37.3537C114.091 36.5722 113.882 35.9445 113.465 35.4715C113.047 34.9984 112.521 34.7618 111.889 34.7618ZM28.0625 34.7618C27.7463 34.7618 27.4515 34.8252 27.1796 34.9512C26.9075 35.0775 26.6733 35.2539 26.477 35.4807C26.2808 35.7081 26.1259 35.9824 26.0121 36.304C25.8981 36.6255 25.8412 36.9754 25.8412 37.3537C25.8412 38.1361 26.0502 38.7633 26.4679 39.2366C26.8855 39.7093 27.4169 39.9459 28.0625 39.9459C28.3786 39.9459 28.6703 39.8831 28.9361 39.7568C29.2017 39.6308 29.4326 39.4538 29.6291 39.227C29.8253 38.9999 29.9802 38.7253 30.0939 38.4038C30.2083 38.0822 30.2649 37.7323 30.2649 37.3537C30.2649 36.5722 30.0565 35.9445 29.6386 35.4715C29.2209 34.9984 28.6954 34.7618 28.0625 34.7618ZM81.3389 34.3649C80.7439 34.3649 80.253 34.5509 79.8671 34.9228C79.4812 35.295 79.2568 35.7901 79.1937 36.408H83.4845C83.4209 35.7773 83.193 35.2794 82.8011 34.9133C82.408 34.5477 81.9212 34.3649 81.3389 34.3649ZM52.1374 34.3649C51.5424 34.3649 51.0518 34.5509 50.6659 34.9228C50.2799 35.295 50.0553 35.7901 49.9924 36.408H54.2835C54.2195 35.7773 53.9916 35.2794 53.5997 34.9133C53.2067 34.5477 52.7197 34.3649 52.1374 34.3649Z" fill="white"/><path d="M14.5361 22.5H13.374V12.5059H18.9453V13.5381H14.5361V17.1953H18.6787V18.2275H14.5361V22.5Z" fill="white"/><path d="M21.5703 22.5H20.4355V15.0078H21.5703V22.5ZM20.3398 12.9775C20.3398 12.7178 20.4036 12.5286 20.5312 12.4102C20.6589 12.2871 20.8184 12.2256 21.0098 12.2256C21.1921 12.2256 21.3493 12.2871 21.4814 12.4102C21.6136 12.5332 21.6797 12.7223 21.6797 12.9775C21.6797 13.2327 21.6136 13.4242 21.4814 13.5518C21.3493 13.6748 21.1921 13.7363 21.0098 13.7363C20.8184 13.7363 20.6589 13.6748 20.5312 13.5518C20.4036 13.4242 20.3398 13.2327 20.3398 12.9775Z" fill="white"/><path d="M29.1035 22.5V17.6533C29.1035 17.0426 28.9645 16.5869 28.6865 16.2861C28.4085 15.9854 27.9733 15.835 27.3809 15.835C26.597 15.835 26.0228 16.0469 25.6582 16.4707C25.2936 16.8945 25.1113 17.5941 25.1113 18.5693V22.5H23.9766V15.0078H24.8994L25.084 16.0332H25.1387C25.3711 15.6641 25.6969 15.3792 26.1162 15.1787C26.5355 14.9736 27.0026 14.8711 27.5176 14.8711C28.4199 14.8711 29.099 15.0898 29.5547 15.5273C30.0104 15.9603 30.2383 16.6553 30.2383 17.6123V22.5H29.1035Z" fill="white"/><path d="M37.6758 21.4951H37.6143C37.0902 22.2562 36.3063 22.6367 35.2627 22.6367C34.2829 22.6367 33.5195 22.3018 32.9727 21.6318C32.4303 20.9619 32.1592 20.0094 32.1592 18.7744C32.1592 17.5394 32.4326 16.5801 32.9795 15.8965C33.5264 15.2129 34.2874 14.8711 35.2627 14.8711C36.279 14.8711 37.0583 15.2402 37.6006 15.9785H37.6895L37.6416 15.4385L37.6143 14.9121V11.8633H38.749V22.5H37.8262L37.6758 21.4951ZM35.4062 21.6865C36.181 21.6865 36.7415 21.4769 37.0879 21.0576C37.4388 20.6338 37.6143 19.9525 37.6143 19.0137V18.7744C37.6143 17.7126 37.4365 16.9561 37.0811 16.5049C36.7301 16.0492 36.1673 15.8213 35.3926 15.8213C34.7272 15.8213 34.2168 16.0811 33.8613 16.6006C33.5104 17.1156 33.335 17.8447 33.335 18.7881C33.335 19.7451 33.5104 20.4674 33.8613 20.9551C34.2122 21.4427 34.7272 21.6865 35.4062 21.6865Z" fill="white"/><path d="M53.3486 22.5V17.626C53.3486 17.029 53.221 16.5824 52.9658 16.2861C52.7106 15.9854 52.3141 15.835 51.7764 15.835C51.07 15.835 50.5482 16.0378 50.2109 16.4434C49.8737 16.849 49.7051 17.4733 49.7051 18.3164V22.5H48.5703V17.626C48.5703 17.029 48.4427 16.5824 48.1875 16.2861C47.9323 15.9854 47.5335 15.835 46.9912 15.835C46.2803 15.835 45.7585 16.0492 45.4258 16.4775C45.0977 16.9014 44.9336 17.5986 44.9336 18.5693V22.5H43.7988V15.0078H44.7217L44.9062 16.0332H44.9609C45.1751 15.6686 45.4759 15.3838 45.8633 15.1787C46.2552 14.9736 46.6927 14.8711 47.1758 14.8711C48.347 14.8711 49.1126 15.2949 49.4727 16.1426H49.5273C49.7507 15.7507 50.0742 15.4408 50.498 15.2129C50.9219 14.985 51.4049 14.8711 51.9473 14.8711C52.7949 14.8711 53.4284 15.0898 53.8477 15.5273C54.2715 15.9603 54.4834 16.6553 54.4834 17.6123V22.5H53.3486Z" fill="white"/><path d="M59.9932 22.6367C58.8857 22.6367 58.0107 22.2995 57.3682 21.625C56.7301 20.9505 56.4111 20.014 56.4111 18.8154C56.4111 17.6077 56.7074 16.6484 57.2998 15.9375C57.8968 15.2266 58.6966 14.8711 59.6992 14.8711C60.638 14.8711 61.3809 15.181 61.9277 15.8008C62.4746 16.416 62.748 17.2295 62.748 18.2412V18.959H57.5869C57.6097 19.8385 57.8307 20.5062 58.25 20.9619C58.6738 21.4176 59.2686 21.6455 60.0342 21.6455C60.8408 21.6455 61.6383 21.4769 62.4268 21.1396V22.1514C62.0257 22.3245 61.6452 22.4476 61.2852 22.5205C60.9297 22.598 60.499 22.6367 59.9932 22.6367ZM59.6855 15.8213C59.084 15.8213 58.6032 16.0173 58.2432 16.4092C57.8877 16.8011 57.6781 17.3434 57.6143 18.0361H61.5312C61.5312 17.3206 61.3717 16.7738 61.0527 16.3955C60.7337 16.0127 60.278 15.8213 59.6855 15.8213Z" fill="white"/><path d="M73.793 18.7471C73.793 19.9684 73.4854 20.9232 72.8701 21.6113C72.2549 22.2949 71.4049 22.6367 70.3203 22.6367C69.6504 22.6367 69.0557 22.4795 68.5361 22.165C68.0166 21.8506 67.6156 21.3994 67.333 20.8115C67.0505 20.2236 66.9092 19.5355 66.9092 18.7471C66.9092 17.5257 67.2145 16.5755 67.8252 15.8965C68.4359 15.2129 69.2835 14.8711 70.3682 14.8711C71.4163 14.8711 72.248 15.2197 72.8633 15.917C73.4831 16.6143 73.793 17.5576 73.793 18.7471ZM68.085 18.7471C68.085 19.7041 68.2764 20.4333 68.6592 20.9346C69.042 21.4359 69.6048 21.6865 70.3477 21.6865C71.0905 21.6865 71.6533 21.4382 72.0361 20.9414C72.4235 20.4401 72.6172 19.7087 72.6172 18.7471C72.6172 17.7946 72.4235 17.0723 72.0361 16.5801C71.6533 16.0833 71.0859 15.835 70.334 15.835C69.5911 15.835 69.0306 16.0788 68.6523 16.5664C68.2741 17.054 68.085 17.7809 68.085 18.7471Z" fill="white"/><path d="M80.916 22.5V17.6533C80.916 17.0426 80.777 16.5869 80.499 16.2861C80.221 15.9854 79.7858 15.835 79.1934 15.835C78.4095 15.835 77.8353 16.0469 77.4707 16.4707C77.1061 16.8945 76.9238 17.5941 76.9238 18.5693V22.5H75.7891V15.0078H76.7119L76.8965 16.0332H76.9512C77.1836 15.6641 77.5094 15.3792 77.9287 15.1787C78.348 14.9736 78.8151 14.8711 79.3301 14.8711C80.2324 14.8711 80.9115 15.0898 81.3672 15.5273C81.8229 15.9603 82.0508 16.6553 82.0508 17.6123V22.5H80.916Z" fill="white"/></svg>